<?xml version="1.0" standalone="no"?><!DOCTYPE svg PUBLIC "-//W3C//DTD SVG 1.1//EN" "http://www.w3.org/Graphics/SVG/1.1/DTD/svg11.dtd"><svg class="icon" width="48px" height="48.00px" viewBox="0 0 1024 1024" version="1.1" xmlns="http://www.w3.org/2000/svg"><path fill="#000000" d="M837.818182 272.523636L558.545455 131.956364a93.090909 93.090909 0 0 0-93.09091 0L186.181818 273.221818a93.090909 93.090909 0 0 0-46.545454 80.290909v331.636364a93.090909 93.090909 0 0 0 46.545454 80.989091l279.272727 139.636363a93.090909 93.090909 0 0 0 47.709091 13.032728A90.763636 90.763636 0 0 0 558.545455 907.636364l279.272727-142.196364a93.090909 93.090909 0 0 0 46.545454-80.290909V353.512727a93.090909 93.090909 0 0 0-46.545454-80.989091zM209.454545 313.949091l279.272728-141.963636a46.545455 46.545455 0 0 1 23.272727-6.283637 48.407273 48.407273 0 0 1 25.134545 6.981818l279.272728 139.636364a52.596364 52.596364 0 0 1 11.403636 10.007273L512 495.941818 197.352727 323.258182a39.796364 39.796364 0 0 1 10.472728-9.309091z m0 411.461818a46.545455 46.545455 0 0 1-23.272727-40.261818V370.269091L488.727273 535.272727v330.472728h-1.629091z m628.363637-40.261818a46.545455 46.545455 0 0 1-21.643637 39.330909L535.272727 866.676364V535.272727l302.545455-165.934545v315.810909z"  /><path fill="#000000" d="M581.818182 696.785455L791.272727 581.818182v-53.061818l-209.454545 114.967272v53.061819zM232.727273 581.818182l209.454545 114.967273v-53.061819l-209.454545-114.967272V581.818182z"  /></svg>