<?xml version="1.0" standalone="no"?><!DOCTYPE svg PUBLIC "-//W3C//DTD SVG 1.1//EN" "http://www.w3.org/Graphics/SVG/1.1/DTD/svg11.dtd"><svg class="icon" width="48px" height="48.00px" viewBox="0 0 1024 1024" version="1.1" xmlns="http://www.w3.org/2000/svg"><path fill="#000000" d="M827.578182 213.410909a561.570909 561.570909 0 0 0-631.156364 0A23.272727 23.272727 0 0 0 186.181818 232.727273v211.083636a498.269091 498.269091 0 0 0 317.44 462.196364 23.272727 23.272727 0 0 0 16.756364 0A498.269091 498.269091 0 0 0 837.818182 443.810909V232.727273a23.272727 23.272727 0 0 0-10.24-19.316364zM791.272727 443.810909a451.490909 451.490909 0 0 1-279.272727 415.418182 451.490909 451.490909 0 0 1-279.272727-415.418182v-198.516364a514.56 514.56 0 0 1 558.545454 0z"  /><path fill="#000000" d="M488.727273 349.090909v116.363636h-116.363637a23.272727 23.272727 0 0 0 0 46.545455h116.363637v116.363636a23.272727 23.272727 0 0 0 46.545454 0v-116.363636h116.363637a23.272727 23.272727 0 0 0 0-46.545455h-116.363637v-116.363636a23.272727 23.272727 0 0 0-46.545454 0z"  /></svg>