<?xml version="1.0" standalone="no"?><!DOCTYPE svg PUBLIC "-//W3C//DTD SVG 1.1//EN" "http://www.w3.org/Graphics/SVG/1.1/DTD/svg11.dtd"><svg class="icon" width="48px" height="48.00px" viewBox="0 0 1024 1024" version="1.1" xmlns="http://www.w3.org/2000/svg"><path fill="#000000" d="M698.181818 443.578182V279.272727c0-79.592727-120.087273-139.636364-279.272727-139.636363S139.636364 199.68 139.636364 279.272727v418.909091c0 79.592727 120.087273 139.636364 279.272727 139.636364 16.290909 0 32.581818 0 48.407273-2.094546 36.305455 35.84 108.683636 59.112727 195.956363 59.112728 119.854545 0 211.316364-43.752727 220.16-103.563637V555.287273c0.930909-58.414545-77.032727-103.563636-185.250909-111.709091z m139.636364 111.709091c0 27.229091-67.956364 66.792727-174.545455 66.792727S488.727273 581.818182 488.727273 555.287273 556.683636 488.727273 663.272727 488.727273s174.545455 39.563636 174.545455 66.56zM418.909091 186.181818c133.12 0 232.727273 49.105455 232.727273 93.090909s-99.607273 93.090909-232.727273 93.090909-232.727273-49.105455-232.727273-93.090909 99.607273-93.090909 232.727273-93.090909zM186.181818 358.632727C235.287273 395.636364 319.534545 418.909091 418.909091 418.909091s183.621818-23.272727 232.727273-60.276364V442.181818c-88.901818 2.094545-161.047273 28.858182-192.465455 67.723637-13.265455 0-26.530909 1.861818-40.261818 1.861818-133.12 0-232.727273-49.105455-232.727273-93.090909z m0 139.636364C235.287273 535.272727 319.534545 558.545455 418.909091 558.545455h23.272727v93.090909h-23.272727c-133.12 0-232.727273-49.105455-232.727273-93.090909zM186.181818 698.181818v-60.276363C235.287273 674.909091 319.534545 698.181818 418.909091 698.181818h23.272727v93.090909h-23.272727c-133.12 0-232.727273-49.105455-232.727273-93.090909z m477.090909 150.109091c-106.589091 0-174.545455-39.330909-174.545454-66.56v-42.123636a327.912727 327.912727 0 0 0 174.545454 42.123636 327.912727 327.912727 0 0 0 174.545455-42.123636v42.123636c0 27.229091-67.956364 66.56-174.545455 66.56z m0-113.105454c-106.589091 0-174.545455-39.563636-174.545454-66.56v-42.356364a327.68 327.68 0 0 0 174.545454 42.356364 327.68 327.68 0 0 0 174.545455-42.356364v42.356364c0 26.996364-67.956364 66.56-174.545455 66.56z" /></svg>